<svg xmlns="http://www.w3.org/2000/svg" viewBox="0 0 500 500"><g id="freepik--Floor--inject-11"><path d="M468.44,474c0,.14-99.15.26-221.43.26S25.56,474.12,25.56,474s99.13-.26,221.45-.26S468.44,473.83,468.44,474Z" style="fill:#263238"></path></g><g id="freepik--Stool--inject-11"><polygon points="445.5 434.83 456.44 473.98 448.41 473.98 430.01 434.61 445.5 434.83" style="fill:#ae7461"></polygon><polygon points="435.23 445.79 448.41 445.62 447.23 441.23 433.34 441.74 435.23 445.79" style="opacity:0.30000000000000004"></polygon><polygon points="401.33 435.93 391.03 473.98 398.95 473.98 416.81 435.71 401.33 435.93" style="fill:#ae7461"></polygon><polygon points="412.1 445.79 398.7 445.62 399.91 441.23 414.02 441.74 412.1 445.79" style="opacity:0.30000000000000004"></polygon><path d="M446,442.73H400.4a6.7,6.7,0,0,1-6.65-6c-1.51-13.93-1.75-27.21-.18-39.58a6.69,6.69,0,0,1,6.64-5.82h46a6.69,6.69,0,0,1,6.66,6c1.43,13.31.95,26.61-.18,39.29A6.69,6.69,0,0,1,446,442.73Z" style="fill:#FF725E"></path><path d="M452.57,404.42c0,.13-13.33.24-29.77.24s-29.78-.11-29.78-.24,13.33-.23,29.78-.23S452.57,404.3,452.57,404.42Z" style="fill:#263238"></path><path d="M402.92,441.86a9.48,9.48,0,0,1-.41-1.41c-.23-.92-.53-2.26-.87-3.92a118.84,118.84,0,0,1-1.86-13.1,116.72,116.72,0,0,1-.41-13.22c0-1.7.11-3.07.19-4a9.6,9.6,0,0,1,.15-1.46,8,8,0,0,1,0,1.47c0,.94,0,2.31-.05,4,0,3.38.11,8.05.55,13.18s1.13,9.76,1.72,13.08c.3,1.67.55,3,.73,3.94A8.91,8.91,0,0,1,402.92,441.86Z" style="fill:#263238"></path><path d="M444.51,443.15a9.5,9.5,0,0,1,.09-1.52c.09-1.05.2-2.45.34-4.13.27-3.48.54-8.3.56-13.63s-.22-10.16-.46-13.64c-.13-1.69-.24-3.08-.32-4.13a7.91,7.91,0,0,1-.07-1.52,9.77,9.77,0,0,1,.25,1.5c.14,1,.3,2.38.46,4.12.33,3.49.62,8.32.61,13.67s-.35,10.18-.7,13.66c-.18,1.74-.35,3.15-.49,4.12A8.15,8.15,0,0,1,444.51,443.15Z" style="fill:#263238"></path></g><g id="freepik--Shelf--inject-11"><path d="M371.93,57.12s0-.06.07-.16l.23-.43a17.78,17.78,0,0,1,1-1.59,17.09,17.09,0,0,1,5-4.75,12.47,12.47,0,0,1,4.51-1.66,11.27,11.27,0,0,1,5.48.58A8.94,8.94,0,0,1,393,53c1.07,1.88,1.42,4.09,2.05,6.2a11.26,11.26,0,0,0,1.31,3,9.1,9.1,0,0,0,2.23,2.19c.83.62,1.71,1.17,2.51,1.82a11.47,11.47,0,0,1,2,2.21,13.45,13.45,0,0,1,2.08,5.11,17.68,17.68,0,0,1,.28,4.79,36.31,36.31,0,0,1-1.22,6.83c-.21.79-.39,1.4-.51,1.81a4.39,4.39,0,0,1-.2.62,4.43,4.43,0,0,1,.13-.64c.11-.45.25-1.06.43-1.83a39,39,0,0,0,1.11-6.8,19,19,0,0,0-.32-4.72,13.59,13.59,0,0,0-2.07-5,10.71,10.71,0,0,0-2-2.12c-.78-.63-1.65-1.18-2.51-1.81A9.26,9.26,0,0,1,396,62.32a11.35,11.35,0,0,1-1.36-3.06c-.64-2.15-1-4.33-2-6.13a8.6,8.6,0,0,0-4.49-3.69,10.81,10.81,0,0,0-5.31-.59,12.2,12.2,0,0,0-4.42,1.57,17.54,17.54,0,0,0-5,4.61c-.49.65-.84,1.18-1.07,1.54A6.15,6.15,0,0,1,371.93,57.12Z" style="fill:#e0e0e0"></path><path d="M399.53,64.86c-.58-.54-.86-.17-1.64,0a4.85,4.85,0,0,0-2.11,1.06,8.86,8.86,0,0,0-2.88,9.32,6.93,6.93,0,0,0,6.36-10.42" style="fill:#e0e0e0"></path><path d="M375.66,54c-.3-.74-.71-.52-1.48-.73a4.84,4.84,0,0,0-2.36,0,8.9,8.9,0,0,0-6.61,7.18,6.93,6.93,0,0,0,10.23-6.66" style="fill:#e0e0e0"></path><path d="M404.79,79.56a8,8,0,0,0-12.59.62,9.94,9.94,0,0,0,6.53,2.57,10.17,10.17,0,0,0,6.58-2.66" style="fill:#e0e0e0"></path><path d="M402.83,68.58A8.11,8.11,0,0,0,411,58.9a7.28,7.28,0,0,0-8.46,9.6" style="fill:#e0e0e0"></path><path d="M394.43,55.67a8.11,8.11,0,0,0,10.94-6.41A7.28,7.28,0,0,0,394.2,55.5" style="fill:#e0e0e0"></path><path d="M391.61,51.45a8.12,8.12,0,0,0-10.95,6.41,7.29,7.29,0,0,0,11.18-6.24" style="fill:#e0e0e0"></path><path d="M388.25,49.18a8.11,8.11,0,0,0,4.32-11.92A7.28,7.28,0,0,0,388,49.2" style="fill:#e0e0e0"></path><path d="M379.65,49.59A8.11,8.11,0,0,0,373,38.78a7.28,7.28,0,0,0,6.46,11" style="fill:#e0e0e0"></path><polyline points="414.34 107.76 418.92 78.99 383.79 79.41 387.25 107.39" style="fill:#263238"></polyline><path d="M399.18,73.73a6,6,0,0,1-5.84.49,6.31,6.31,0,0,1-3.19-5,7.23,7.23,0,0,1,5.83-.3,7.13,7.13,0,0,1,3.87,4.34" style="fill:#FF725E"></path><path d="M383.11,79.93a6,6,0,0,1-5.83.49,6.32,6.32,0,0,1-3.19-5,6.74,6.74,0,0,1,9.69,4" style="fill:#FF725E"></path><path d="M392.13,66.09a6,6,0,0,1-4.6,3.62,6.32,6.32,0,0,1-5.44-2.46,7.17,7.17,0,0,1,4.7-3.45,7.08,7.08,0,0,1,5.62,1.49" style="fill:#FF725E"></path><path d="M386.27,73.26a6,6,0,0,1,5.24,2.59,6.31,6.31,0,0,1,.12,6,7.14,7.14,0,0,1-5.13-2.76,7,7,0,0,1-1.07-5.71" style="fill:#FF725E"></path><path d="M380.61,84.58a6,6,0,0,1-.14,5.85,6.32,6.32,0,0,1-5.36,2.63,7.18,7.18,0,0,1,.33-5.82c.93-1.68,2.59-2.51,4.68-3" style="fill:#FF725E"></path><path d="M371.27,85.92a4.06,4.06,0,0,1,1.39-.89,5.79,5.79,0,0,1,1.9-.33,23.06,23.06,0,0,1,2.6.15,7.58,7.58,0,0,0,3.19-.27A4.92,4.92,0,0,0,383,82a14.49,14.49,0,0,0,1.14-3.89,11.3,11.3,0,0,1,1.35-4,14.42,14.42,0,0,1,3-3,14.38,14.38,0,0,0,2.85-2.88,9.54,9.54,0,0,0,1.41-6.61A9.32,9.32,0,0,0,391,57.38a6.85,6.85,0,0,0-.85-.92,1.9,1.9,0,0,0-.33-.29,1.84,1.84,0,0,0,.28.34,9,9,0,0,1,2.36,5.16A9.32,9.32,0,0,1,391,68.05a14.55,14.55,0,0,1-2.8,2.8,14.49,14.49,0,0,0-3.05,3.1,11.52,11.52,0,0,0-1.4,4.12,14.25,14.25,0,0,1-1.08,3.8,4.57,4.57,0,0,1-2.43,2.41,7.45,7.45,0,0,1-3.07.3,22.12,22.12,0,0,0-2.62-.1,6,6,0,0,0-1.95.41,3.2,3.2,0,0,0-1.05.69,2,2,0,0,0-.22.24C371.28,85.88,371.26,85.91,371.27,85.92Z" style="fill:#FF725E"></path><path d="M371.27,85.92a4.06,4.06,0,0,1,1.39-.89,5.79,5.79,0,0,1,1.9-.33,23.06,23.06,0,0,1,2.6.15,7.58,7.58,0,0,0,3.19-.27A4.92,4.92,0,0,0,383,82a14.49,14.49,0,0,0,1.14-3.89,11.3,11.3,0,0,1,1.35-4,14.42,14.42,0,0,1,3-3,14.38,14.38,0,0,0,2.85-2.88,9.54,9.54,0,0,0,1.41-6.61A9.32,9.32,0,0,0,391,57.38a6.85,6.85,0,0,0-.85-.92,1.9,1.9,0,0,0-.33-.29,1.84,1.84,0,0,0,.28.34,9,9,0,0,1,2.36,5.16A9.32,9.32,0,0,1,391,68.05a14.55,14.55,0,0,1-2.8,2.8,14.49,14.49,0,0,0-3.05,3.1,11.52,11.52,0,0,0-1.4,4.12,14.25,14.25,0,0,1-1.08,3.8,4.57,4.57,0,0,1-2.43,2.41,7.45,7.45,0,0,1-3.07.3,22.12,22.12,0,0,0-2.62-.1,6,6,0,0,0-1.95.41,3.2,3.2,0,0,0-1.05.69,2,2,0,0,0-.22.24C371.28,85.88,371.26,85.91,371.27,85.92Z" style="fill:#FF725E"></path><path d="M438.34,88.86a8.89,8.89,0,0,1,12-8.75,14.85,14.85,0,0,1-11.71,8.65" style="fill:#FF725E"></path><path d="M440.66,90.09c1.72,1.89,1.61,4.92.38,7.16a16.18,16.18,0,0,1-5.47,5.25,11.58,11.58,0,0,1,5-13.1" style="fill:#FF725E"></path><path d="M432.34,81.24a10.26,10.26,0,0,1-11.66,9.14c.67-2.76,1.77-5.55,3.91-7.42s5.5-2.57,7.86-1" style="fill:#FF725E"></path><path d="M432.39,78.42c.43-2.51,2.91-4.33,5.45-4.57a10.49,10.49,0,0,1,7.09,2.38,9.21,9.21,0,0,1-12.56,1.24" style="fill:#FF725E"></path><path d="M445.48,99.81c2.41,2.06,3,5.73,2,8.74a14.61,14.61,0,0,1-6,7.17,19.1,19.1,0,0,1-1.12-9.29,9.76,9.76,0,0,1,5.29-7.37" style="fill:#FF725E"></path><path d="M432.78,71.37A7.41,7.41,0,0,0,421,70.68a6.4,6.4,0,0,0,11.56.3" style="fill:#FF725E"></path><path d="M429.83,64.12a9.63,9.63,0,0,0,12.29-7.53,21.72,21.72,0,0,0-5.81.08,9.45,9.45,0,0,0-5.14,2.53,5.1,5.1,0,0,0-1.34,4.92" style="fill:#FF725E"></path><path d="M424.25,62.25a7.88,7.88,0,0,0,.05-12.16,16.5,16.5,0,0,0-3.44,7.35,6.13,6.13,0,0,0,0,3,2.85,2.85,0,0,0,2.13,2" style="fill:#FF725E"></path><g style="opacity:0.4"><path d="M438.34,88.86a8.89,8.89,0,0,1,12-8.75,14.85,14.85,0,0,1-11.71,8.65"></path></g><g style="opacity:0.4"><path d="M440.66,90.09c1.72,1.89,1.61,4.92.38,7.16a16.18,16.18,0,0,1-5.47,5.25,11.58,11.58,0,0,1,5-13.1"></path></g><g style="opacity:0.4"><path d="M432.34,81.24a10.26,10.26,0,0,1-11.66,9.14c.67-2.76,1.77-5.55,3.91-7.42s5.5-2.57,7.86-1"></path></g><g style="opacity:0.4"><path d="M432.39,78.42c.43-2.51,2.91-4.33,5.45-4.57a10.49,10.49,0,0,1,7.09,2.38,9.21,9.21,0,0,1-12.56,1.24"></path></g><g style="opacity:0.4"><path d="M445.48,99.81c2.41,2.06,3,5.73,2,8.74a14.61,14.61,0,0,1-6,7.17,19.1,19.1,0,0,1-1.12-9.29,9.76,9.76,0,0,1,5.29-7.37"></path></g><g style="opacity:0.4"><path d="M432.78,71.37A7.41,7.41,0,0,0,421,70.68a6.4,6.4,0,0,0,11.56.3"></path></g><g style="opacity:0.4"><path d="M429.83,64.12a9.63,9.63,0,0,0,12.29-7.53,21.72,21.72,0,0,0-5.81.08,9.45,9.45,0,0,0-5.14,2.53,5.1,5.1,0,0,0-1.34,4.92"></path></g><g style="opacity:0.4"><path d="M424.25,62.25a7.88,7.88,0,0,0,.05-12.16,16.5,16.5,0,0,0-3.44,7.35,6.13,6.13,0,0,0,0,3,2.85,2.85,0,0,0,2.13,2"></path></g><path d="M414.61,79.91a.63.63,0,0,0,0-.2c0-.15,0-.34,0-.58,0-.5-.08-1.25-.1-2.22a19.92,19.92,0,0,1,1.31-8A12.17,12.17,0,0,1,419,64.41a8.59,8.59,0,0,1,5.84-2.15,7.3,7.3,0,0,1,3.3.83,6.51,6.51,0,0,1,2.54,2.43,13.06,13.06,0,0,1,1.48,7.34,52.72,52.72,0,0,0-.17,7.72,11.71,11.71,0,0,0,1,3.58A7.52,7.52,0,0,0,435.11,87a10.87,10.87,0,0,0,3,1.54A15.69,15.69,0,0,1,441,89.82a10.31,10.31,0,0,1,3.72,4.06,9.71,9.71,0,0,1,1.08,4.45,10.63,10.63,0,0,1-.56,3.43,13.34,13.34,0,0,1-1.33,2.67l.13-.15c.07-.11.2-.26.34-.47a10.14,10.14,0,0,0,1-2,10.46,10.46,0,0,0,.63-3.48,9.89,9.89,0,0,0-1.05-4.57,10.48,10.48,0,0,0-3.79-4.2c-1.74-1.16-4-1.45-5.8-2.84a9,9,0,0,1-3-6.18,53.77,53.77,0,0,1,.18-7.67A13.42,13.42,0,0,0,431,65.32a7,7,0,0,0-2.69-2.56,7.78,7.78,0,0,0-3.46-.85,8.92,8.92,0,0,0-6.06,2.26,12.52,12.52,0,0,0-3.25,4.65,16.85,16.85,0,0,0-1.11,4.56,26.23,26.23,0,0,0-.1,3.54c0,1,.12,1.71.17,2.22,0,.24.06.43.08.58Z" style="fill:#FF725E"></path><g style="opacity:0.30000000000000004"><path d="M414.61,79.91a.63.63,0,0,0,0-.2c0-.15,0-.34,0-.58,0-.5-.08-1.25-.1-2.22a19.92,19.92,0,0,1,1.31-8A12.17,12.17,0,0,1,419,64.41a8.59,8.59,0,0,1,5.84-2.15,7.3,7.3,0,0,1,3.3.83,6.51,6.51,0,0,1,2.54,2.43,13.06,13.06,0,0,1,1.48,7.34,52.72,52.72,0,0,0-.17,7.72,11.71,11.71,0,0,0,1,3.58A7.52,7.52,0,0,0,435.11,87a10.87,10.87,0,0,0,3,1.54A15.69,15.69,0,0,1,441,89.82a10.31,10.31,0,0,1,3.72,4.06,9.71,9.71,0,0,1,1.08,4.45,10.63,10.63,0,0,1-.56,3.43,13.34,13.34,0,0,1-1.33,2.67l.13-.15c.07-.11.2-.26.34-.47a10.14,10.14,0,0,0,1-2,10.46,10.46,0,0,0,.63-3.48,9.89,9.89,0,0,0-1.05-4.57,10.48,10.48,0,0,0-3.79-4.2c-1.74-1.16-4-1.45-5.8-2.84a9,9,0,0,1-3-6.18,53.77,53.77,0,0,1,.18-7.67A13.42,13.42,0,0,0,431,65.32a7,7,0,0,0-2.69-2.56,7.78,7.78,0,0,0-3.46-.85,8.92,8.92,0,0,0-6.06,2.26,12.52,12.52,0,0,0-3.25,4.65,16.85,16.85,0,0,0-1.11,4.56,26.23,26.23,0,0,0-.1,3.54c0,1,.12,1.71.17,2.22,0,.24.06.43.08.58Z"></path></g><path d="M363.46,73.63a7.26,7.26,0,0,1-.53-2.57,6.33,6.33,0,0,1,.69-3,6.33,6.33,0,0,1,5.12-3.38,7.37,7.37,0,0,1,2.52.3c1.73.45,3.43,1.43,5.46,1.83a6.32,6.32,0,0,0,3.17-.08,4.73,4.73,0,0,0,2.58-2.06c1.23-1.9,1.57-4.29,3.06-6a6.06,6.06,0,0,1,2.77-1.82,8,8,0,0,1,3.24-.33,8.32,8.32,0,0,1,5.4,2.81,12.65,12.65,0,0,1,2.67,4.95,14.87,14.87,0,0,1,.6,4.91,52,52,0,0,1-.91,7.18c-.14.82-.25,1.47-.34,1.94l-.07.51c0,.12,0,.17,0,.18l.05-.17c0-.14.06-.3.11-.5.1-.48.23-1.12.41-1.93a48.74,48.74,0,0,0,1-7.2,15,15,0,0,0-.56-5,13,13,0,0,0-2.72-5.11,9.79,9.79,0,0,0-2.47-2,8.48,8.48,0,0,0-6.55-.63,6.34,6.34,0,0,0-2.94,1.93c-1.57,1.88-1.91,4.28-3.08,6.09a4.39,4.39,0,0,1-2.38,1.92,6.18,6.18,0,0,1-3,.08c-2-.38-3.67-1.34-5.44-1.8a7.46,7.46,0,0,0-2.63-.28,6.57,6.57,0,0,0-5.3,3.57,6.54,6.54,0,0,0-.64,3.07,6.4,6.4,0,0,0,.38,2A3.11,3.11,0,0,0,363.46,73.63Z" style="fill:#FF725E"></path><path d="M384,60.88a6.79,6.79,0,0,1-6.26.41,6.31,6.31,0,0,1-3.19-5,7.16,7.16,0,0,1,5.82-.29,7.06,7.06,0,0,1,3.87,4.33" style="fill:#FF725E"></path><path d="M377.34,66.92a6.82,6.82,0,0,1-2.9,5.57,6.34,6.34,0,0,1-6,.1,7.18,7.18,0,0,1,2.78-5.13,7.11,7.11,0,0,1,5.71-1" style="fill:#FF725E"></path><path d="M365.79,65.58a6.82,6.82,0,0,1-6.28-.25A6.37,6.37,0,0,1,356.88,60a7.18,7.18,0,0,1,5.82.33A7.1,7.1,0,0,1,366.09,65" style="fill:#FF725E"></path><path d="M393.71,56.88A7.15,7.15,0,0,0,396.2,51a6.31,6.31,0,0,0-3.87-4.54,6.74,6.74,0,0,0,1,10.45" style="fill:#FF725E"></path><path d="M438.83,48.61a.84.84,0,0,0-.07-.16c-.06-.11-.14-.25-.23-.43-.22-.37-.55-.92-1-1.59a17.22,17.22,0,0,0-5-4.75A12.28,12.28,0,0,0,428,40a11.13,11.13,0,0,0-5.48.57,8.9,8.9,0,0,0-4.69,3.84c-1.08,1.88-1.42,4.09-2.05,6.2a11.45,11.45,0,0,1-1.31,3,8.92,8.92,0,0,1-2.23,2.19c-.84.62-1.71,1.18-2.51,1.83a10.92,10.92,0,0,0-2,2.21,13.53,13.53,0,0,0-2.09,5.1,18.15,18.15,0,0,0-.28,4.8,36.87,36.87,0,0,0,1.23,6.82c.21.79.38,1.4.5,1.81s.2.63.21.63a4.12,4.12,0,0,0-.13-.65c-.11-.45-.25-1.06-.44-1.83a40.18,40.18,0,0,1-1.1-6.8,18.06,18.06,0,0,1,.32-4.72A13.47,13.47,0,0,1,408,60a10.47,10.47,0,0,1,2-2.13c.78-.63,1.65-1.18,2.5-1.81a9.3,9.3,0,0,0,2.32-2.28,11.35,11.35,0,0,0,1.36-3.06c.64-2.15,1-4.32,2-6.12a8.51,8.51,0,0,1,4.48-3.7,10.85,10.85,0,0,1,5.32-.59,12,12,0,0,1,4.41,1.58,17.32,17.32,0,0,1,5.05,4.6c.49.65.84,1.18,1.07,1.54A4.67,4.67,0,0,0,438.83,48.61Z" style="fill:#FF725E"></path><path d="M411.23,56.35c.58-.54.86-.17,1.64,0A4.78,4.78,0,0,1,415,57.38a8.89,8.89,0,0,1,2.88,9.33,6.94,6.94,0,0,1-6.37-10.42" style="fill:#FF725E"></path><path d="M435.1,45.48c.29-.74.71-.52,1.48-.73a4.8,4.8,0,0,1,2.35,0A8.9,8.9,0,0,1,445.55,52a6.93,6.93,0,0,1-10.23-6.67" style="fill:#FF725E"></path><path d="M406,71.06a8,8,0,0,1,12.58.61A9.89,9.89,0,0,1,412,74.24a10,10,0,0,1-6.58-2.66" style="fill:#FF725E"></path><path d="M407.93,60.07a8.12,8.12,0,0,1-8.2-9.68A7.28,7.28,0,0,1,408.2,60" style="fill:#FF725E"></path><path d="M416.33,47.16a8.11,8.11,0,0,1-10.94-6.41A7.28,7.28,0,0,1,416.56,47" style="fill:#FF725E"></path><path d="M419.15,42.94a8.11,8.11,0,0,1,10.94,6.41,7.28,7.28,0,0,1-11.17-6.24" style="fill:#FF725E"></path><path d="M422.51,40.67a8.11,8.11,0,0,1-4.32-11.92,7.28,7.28,0,0,1,4.6,11.94" style="fill:#FF725E"></path><path d="M431.11,41.08a8.11,8.11,0,0,1,6.63-10.81,7.28,7.28,0,0,1-6.47,11" style="fill:#FF725E"></path><polygon points="419.37 104.43 416.68 107.76 383.61 107.76 381.36 104.43 419.37 104.43" style="fill:#263238"></polygon><path d="M382.09,104.4c0,.1,8.12.19,18.14.19s18.15-.09,18.15-.19-8.12-.19-18.15-.19S382.09,104.29,382.09,104.4Z" style="fill:#455a64"></path><path d="M385.8,91.84a1.17,1.17,0,0,0,.21.27,6.46,6.46,0,0,0,.67.71,12.35,12.35,0,0,0,3,2.05A12.66,12.66,0,0,0,398,95.93a19.24,19.24,0,0,0,3.22-1.06c2.13-.91,4.06-2,5.95-2.55a10.29,10.29,0,0,1,5.15-.49,6.7,6.7,0,0,1,3.15,1.46,11.15,11.15,0,0,1,.9.94,1,1,0,0,0-.16-.3,4.84,4.84,0,0,0-.64-.75,6.62,6.62,0,0,0-3.2-1.62A10.33,10.33,0,0,0,407,92c-1.94.59-3.9,1.63-6,2.52a19.14,19.14,0,0,1-3.15,1.06,12.54,12.54,0,0,1-3.07.28,13.21,13.21,0,0,1-5.06-1.22A16,16,0,0,1,385.8,91.84Z" style="fill:#455a64"></path><path d="M385.48,89.26s.06.1.22.26a9.73,9.73,0,0,0,.73.66,13.69,13.69,0,0,0,3.06,1.9,14.55,14.55,0,0,0,5.19,1.24,14.36,14.36,0,0,0,3.17-.21,22.28,22.28,0,0,0,3.27-.93c2.18-.79,4.18-1.7,6.1-2.24a12.17,12.17,0,0,1,5.19-.47,7.81,7.81,0,0,1,3.27,1.25c.69.49,1,.85,1,.83a1.34,1.34,0,0,0-.21-.28,5.64,5.64,0,0,0-.72-.66,7.44,7.44,0,0,0-3.32-1.4,11.93,11.93,0,0,0-5.33.4c-1.95.52-4,1.43-6.13,2.21a21,21,0,0,1-3.21.92,14.22,14.22,0,0,1-3.08.23,14.82,14.82,0,0,1-5.11-1.14A17.66,17.66,0,0,1,385.48,89.26Z" style="fill:#455a64"></path><rect x="367.38" y="75.8" width="6.62" height="45.33" style="fill:#FF725E"></rect><path d="M373.19,82a14.49,14.49,0,0,1-5.67,0,14,14,0,0,1,5.67,0Z" style="fill:#fafafa"></path><path d="M373.31,81a14,14,0,0,1-5.67,0,14.49,14.49,0,0,1,5.67,0Z" style="fill:#fafafa"></path><path d="M373.19,117.63a14.49,14.49,0,0,1-5.67,0,14,14,0,0,1,5.67,0Z" style="fill:#fafafa"></path><path d="M373.31,116.64a14,14,0,0,1-5.67,0,14.49,14.49,0,0,1,5.67,0Z" style="fill:#fafafa"></path><path d="M370.23,110.72c-.16,0-.29-5.19-.29-11.59s.13-11.6.29-11.6.28,5.19.28,11.6S370.39,110.72,370.23,110.72Z" style="fill:#fafafa"></path><rect x="334.63" y="75.66" width="12.11" height="45.33" style="fill:#FF725E"></rect><path d="M337.47,121.58a1,1,0,0,1-.14-.25c-.09-.17-.2-.42-.35-.76a13.65,13.65,0,0,1-.88-3.07,8.09,8.09,0,0,1,.71-5,6.67,6.67,0,0,1,2.15-2.36,5,5,0,0,1,3.49-.83,3.71,3.71,0,0,1,1.8.83,2.41,2.41,0,0,1,.87,1.92,2.73,2.73,0,0,1-1,1.92,3.64,3.64,0,0,1-2.06.87,5.46,5.46,0,0,1-4.29-1.56A6.85,6.85,0,0,1,335.6,109a11.55,11.55,0,0,1,.62-5.06,9.33,9.33,0,0,1,3-4.42,4.91,4.91,0,0,1,2.62-1,3.38,3.38,0,0,1,2.72,1,2.15,2.15,0,0,1,.62,1.41,2.59,2.59,0,0,1-.42,1.49,3.91,3.91,0,0,1-2.44,1.66,5.71,5.71,0,0,1-5.34-1.78,9,9,0,0,1-2.07-5.11,12.55,12.55,0,0,1,.52-5.29,7.29,7.29,0,0,1,3.13-4,5.35,5.35,0,0,1,4.81-.51,2.53,2.53,0,0,1,1.56,1.85,2.9,2.9,0,0,1-.55,2.29,3.78,3.78,0,0,1-4.08,1.08,7.07,7.07,0,0,1-3.22-2.29A10.32,10.32,0,0,1,334.64,84a10.07,10.07,0,0,1,3-7.49,7.92,7.92,0,0,1,.63-.54.9.9,0,0,1,.23-.16A11.58,11.58,0,0,0,336,79.15,9.76,9.76,0,0,0,335,84a9.94,9.94,0,0,0,2.4,6,6.62,6.62,0,0,0,3,2.12,3.33,3.33,0,0,0,3.57-.94,2.38,2.38,0,0,0,.45-1.9,2,2,0,0,0-1.28-1.49,4.85,4.85,0,0,0-4.34.5A6.8,6.8,0,0,0,335.91,92a12,12,0,0,0-.48,5,8.38,8.38,0,0,0,1.94,4.78,5.16,5.16,0,0,0,4.79,1.62,3.37,3.37,0,0,0,2.09-1.42,1.75,1.75,0,0,0-.13-2.21,2.9,2.9,0,0,0-2.27-.79,4.22,4.22,0,0,0-2.32.92,8.81,8.81,0,0,0-2.79,4.14,11,11,0,0,0-.62,4.82,6.38,6.38,0,0,0,1.95,4.06,5,5,0,0,0,3.9,1.45,2.88,2.88,0,0,0,2.71-2.35,2,2,0,0,0-.71-1.57,3.25,3.25,0,0,0-1.59-.75,4.58,4.58,0,0,0-3.22.73,6.24,6.24,0,0,0-2.07,2.22,7.87,7.87,0,0,0-.77,4.8,14.5,14.5,0,0,0,.77,3.06C337.34,121.22,337.49,121.57,337.47,121.58Z" style="fill:#fafafa"></path><rect x="390.62" y="92.41" width="12.11" height="45.33" transform="translate(281.6 511.75) rotate(-90)" style="fill:#e0e0e0"></rect><path d="M418.84,118.3a1.72,1.72,0,0,1-.24.14c-.17.08-.41.2-.74.34a12.22,12.22,0,0,1-3,.88A7.58,7.58,0,0,1,410,119a6.42,6.42,0,0,1-2.31-2.14,5,5,0,0,1-.81-3.49,3.77,3.77,0,0,1,.81-1.8,2.3,2.3,0,0,1,1.87-.87,2.69,2.69,0,0,1,1.88,1,3.75,3.75,0,0,1,.85,2.07,5.55,5.55,0,0,1-1.52,4.29,6.7,6.7,0,0,1-4.26,2.13,11,11,0,0,1-4.93-.63,9,9,0,0,1-4.32-3,4.89,4.89,0,0,1-1-2.61,3.45,3.45,0,0,1,.94-2.72,2.1,2.1,0,0,1,1.39-.62A2.42,2.42,0,0,1,400,111a3.93,3.93,0,0,1,1.63,2.45,5.78,5.78,0,0,1-1.74,5.33,8.56,8.56,0,0,1-5,2.08,12,12,0,0,1-5.16-.52,7.17,7.17,0,0,1-3.93-3.13,5.44,5.44,0,0,1-.49-4.81,2.48,2.48,0,0,1,1.8-1.57,2.84,2.84,0,0,1,2.23.55,3.83,3.83,0,0,1,1.05,4.08,6.91,6.91,0,0,1-2.23,3.22,9.88,9.88,0,0,1-6.07,2.42,9.49,9.49,0,0,1-4.8-1.12,9.63,9.63,0,0,1-2.51-1.9c-.24-.27-.42-.48-.53-.63a1.58,1.58,0,0,1-.16-.24,11.53,11.53,0,0,0,3.29,2.57,9.49,9.49,0,0,0,4.7,1,9.67,9.67,0,0,0,5.83-2.4,6.73,6.73,0,0,0,2.07-3,3.4,3.4,0,0,0-.92-3.58,2.37,2.37,0,0,0-1.86-.45,2,2,0,0,0-1.45,1.29,5,5,0,0,0,.49,4.34,6.61,6.61,0,0,0,3.66,2.88,11.49,11.49,0,0,0,4.93.48,8,8,0,0,0,4.67-1.94,5.21,5.21,0,0,0,1.58-4.78,3.37,3.37,0,0,0-1.38-2.09,1.66,1.66,0,0,0-2.16.13,2.87,2.87,0,0,0-.77,2.27,4.37,4.37,0,0,0,.89,2.32,8.56,8.56,0,0,0,4.05,2.79,10.65,10.65,0,0,0,4.7.62,6.21,6.21,0,0,0,4-2,5.07,5.07,0,0,0,1.42-3.9,2.85,2.85,0,0,0-2.29-2.71,1.88,1.88,0,0,0-1.54.71,3.23,3.23,0,0,0-.73,1.59,4.73,4.73,0,0,0,.71,3.22,6.37,6.37,0,0,0,2.17,2.07,7.52,7.52,0,0,0,4.69.76,13.5,13.5,0,0,0,3-.76A8.51,8.51,0,0,1,418.84,118.3Z" style="fill:#fafafa"></path><rect x="346.2" y="79.66" width="21.01" height="41.28" style="fill:#263238"></rect><path d="M366.49,86.52a94.1,94.1,0,0,1-10.17.28,94,94,0,0,1-10.17-.28,89.41,89.41,0,0,1,10.17-.29A89.56,89.56,0,0,1,366.49,86.52Z" style="fill:#e0e0e0"></path><path d="M366.75,89.64a87.27,87.27,0,0,1-10,.29,87.12,87.12,0,0,1-10-.29,91.54,91.54,0,0,1,10-.28A91.69,91.69,0,0,1,366.75,89.64Z" style="fill:#e0e0e0"></path><path d="M367.42,116.27a96.58,96.58,0,0,1-10.57.29,96.58,96.58,0,0,1-10.57-.29,98.26,98.26,0,0,1,10.57-.28A98.26,98.26,0,0,1,367.42,116.27Z" style="fill:#e0e0e0"></path><path d="M367.14,112.59a91.74,91.74,0,0,1-10.3.29,91.74,91.74,0,0,1-10.3-.29,96.39,96.39,0,0,1,10.3-.28A96.39,96.39,0,0,1,367.14,112.59Z" style="fill:#e0e0e0"></path><rect x="322.59" y="120.81" width="117" height="11.27" style="fill:#455a64"></rect><rect x="345.55" y="130.04" width="8.85" height="16.53" style="fill:#455a64"></rect><rect x="409.91" y="130.04" width="8.85" height="16.53" style="fill:#455a64"></rect><path d="M438.77,131.92c0,.15-26,.26-58.07.26s-58.07-.11-58.07-.26,26-.26,58.07-.26S438.77,131.78,438.77,131.92Z" style="fill:#263238"></path></g><g id="freepik--Picture--inject-11"><rect x="47.18" y="41.68" width="98.89" height="127.72" style="fill:#455a64"></rect><path d="M146.06,41.68a1.5,1.5,0,0,1-.27.34c-.21.25-.49.56-.84,1l-3.35,3.66,0,0h-.07c-8.59.08-25.49.14-44.88.14s-36.29-.06-44.88-.14h-.07l0,0L48.29,43c-.35-.4-.63-.71-.84-1a1.5,1.5,0,0,1-.27-.34l.32.29.9.91,3.44,3.57-.1,0c8.59-.09,25.48-.15,44.88-.15s36.29.06,44.88.15l-.1,0,3.44-3.57.9-.91A1.7,1.7,0,0,1,146.06,41.68Z" style="fill:#263238"></path><path d="M47.18,169.4a1.82,1.82,0,0,1,.27-.34l.84-1,3.34-3.66,0,0h.07c8.59-.09,25.49-.15,44.88-.15s36.29.06,44.88.15h.07l0,0L145,168.1c.35.4.63.71.84,1a1.82,1.82,0,0,1,.27.34,1.7,1.7,0,0,1-.32-.29l-.9-.91-3.44-3.57.1.05c-8.59.08-25.49.14-44.88.14s-36.29-.06-44.88-.15l.1,0L48.4,168.2l-.9.91Z" style="fill:#263238"></path><rect x="51.74" y="46.55" width="89.77" height="117.99" style="fill:#fff"></rect><path d="M65.78,130c2.67-2.54,6.61-3.26,10.3-3.17s7.34.87,11,.82c5.89-.07,11.77-2.25,17.58-1.24,1.86.32,3.74,1,5.58.57,1.62-.34,3-1.45,4.55-1.92,4.1-1.22,8.7,2,12.64.31v26.34H65.78Z" style="fill:#FF725E"></path><path d="M67,131.09c-.15,0-.28-15.6-.28-34.84S66.87,61.4,67,61.4s.29,15.6.29,34.85S67.18,131.09,67,131.09Z" style="fill:#263238"></path><path d="M69.83,131.09c-.16,0-.28-15.6-.28-34.84s.12-34.85.28-34.85.29,15.6.29,34.85S70,131.09,69.83,131.09Z" style="fill:#263238"></path><path d="M72.64,131.09c-.16,0-.29-15.6-.29-34.84s.13-34.85.29-34.85.29,15.6.29,34.85S72.8,131.09,72.64,131.09Z" style="fill:#263238"></path><path d="M75.45,131.09c-.16,0-.29-15.6-.29-34.84s.13-34.85.29-34.85.28,15.6.28,34.85S75.61,131.09,75.45,131.09Z" style="fill:#263238"></path><path d="M78.26,131.09c-.16,0-.29-15.6-.29-34.84s.13-34.85.29-34.85.28,15.6.28,34.85S78.41,131.09,78.26,131.09Z" style="fill:#263238"></path><path d="M81.06,131.09c-.15,0-.28-15.6-.28-34.84s.13-34.85.28-34.85.29,15.6.29,34.85S81.22,131.09,81.06,131.09Z" style="fill:#263238"></path><path d="M83.87,131.09c-.16,0-.28-15.6-.28-34.84s.12-34.85.28-34.85.29,15.6.29,34.85S84,131.09,83.87,131.09Z" style="fill:#263238"></path><path d="M86.68,131.09c-.16,0-.29-15.6-.29-34.84s.13-34.85.29-34.85S87,77,87,96.25,86.84,131.09,86.68,131.09Z" style="fill:#263238"></path><path d="M89.49,131.09c-.16,0-.29-15.6-.29-34.84s.13-34.85.29-34.85.28,15.6.28,34.85S89.65,131.09,89.49,131.09Z" style="fill:#263238"></path><path d="M92.3,131.09c-.16,0-.29-15.6-.29-34.84s.13-34.85.29-34.85.28,15.6.28,34.85S92.45,131.09,92.3,131.09Z" style="fill:#263238"></path><path d="M95.1,131.09c-.15,0-.28-15.6-.28-34.84S95,61.4,95.1,61.4s.29,15.6.29,34.85S95.26,131.09,95.1,131.09Z" style="fill:#263238"></path><path d="M97.91,131.09c-.16,0-.28-15.6-.28-34.84s.12-34.85.28-34.85.29,15.6.29,34.85S98.07,131.09,97.91,131.09Z" style="fill:#263238"></path><path d="M100.72,131.09c-.16,0-.29-15.6-.29-34.84s.13-34.85.29-34.85S101,77,101,96.25,100.88,131.09,100.72,131.09Z" style="fill:#263238"></path><path d="M103.53,131.09c-.16,0-.29-15.6-.29-34.84s.13-34.85.29-34.85.28,15.6.28,34.85S103.69,131.09,103.53,131.09Z" style="fill:#263238"></path><path d="M106.34,131.09c-.16,0-.29-15.6-.29-34.84s.13-34.85.29-34.85.28,15.6.28,34.85S106.49,131.09,106.34,131.09Z" style="fill:#263238"></path><path d="M109.14,131.09c-.15,0-.28-15.6-.28-34.84s.13-34.85.28-34.85.29,15.6.29,34.85S109.3,131.09,109.14,131.09Z" style="fill:#263238"></path><path d="M112,131.09c-.16,0-.28-15.6-.28-34.84s.12-34.85.28-34.85.29,15.6.29,34.85S112.11,131.09,112,131.09Z" style="fill:#263238"></path><path d="M114.76,131.09c-.16,0-.29-15.6-.29-34.84s.13-34.85.29-34.85.29,15.6.29,34.85S114.92,131.09,114.76,131.09Z" style="fill:#263238"></path><path d="M117.57,131.09c-.16,0-.29-15.6-.29-34.84s.13-34.85.29-34.85.28,15.6.28,34.85S117.73,131.09,117.57,131.09Z" style="fill:#263238"></path><path d="M120.38,131.09c-.16,0-.29-15.6-.29-34.84s.13-34.85.29-34.85.28,15.6.28,34.85S120.53,131.09,120.38,131.09Z" style="fill:#263238"></path><path d="M123.18,131.09c-.15,0-.28-15.6-.28-34.84s.13-34.85.28-34.85.29,15.6.29,34.85S123.34,131.09,123.18,131.09Z" style="fill:#263238"></path><path d="M126,131.09c-.16,0-.28-15.6-.28-34.84s.12-34.85.28-34.85.29,15.6.29,34.85S126.15,131.09,126,131.09Z" style="fill:#263238"></path></g><g id="freepik--Character--inject-11"><polygon points="375.83 420.25 390.24 473.49 379.16 473.49 354.16 419.93 375.83 420.25" style="fill:#ae7461"></polygon><polygon points="358.46 429.14 378.17 428.89 376.59 422.71 355.61 423.65 358.46 429.14" style="opacity:0.30000000000000004"></polygon><polygon points="194.22 420.25 179.61 473.68 190.79 473.68 215.88 419.93 194.22 420.25" style="fill:#6f4439"></polygon><polygon points="280 420.25 265.14 473.96 276.44 473.96 301.67 419.93 280 420.25" style="fill:#6f4439"></polygon><polygon points="290.04 420.25 304.45 473.49 293.38 473.49 268.37 419.93 290.04 420.25" style="fill:#ae7461"></polygon><path d="M254.16,184s26-1.08,27.58,26-17.17,71.75-15.39,83.94,88.18-15,98.67-16.59,21.46,7.31,21.46,18.41c0,9.15-3,90-4.1,119.42a10.39,10.39,0,0,1-10.39,10H305.18l-90.12-72.75s-59.58-102.91-59.58-104,12.73-70.68,12.73-70.68L240,183.7Z" style="fill:#FF725E"></path><path d="M362.21,287.59c-10.5,1.63-97,33.17-98.82,21L254.16,184,240,183.7l-71.76-5.95s-12.73,69.59-12.73,70.68,59.58,104,59.58,104L312.52,356l59.5-2.59s6.37-38.23,6.37-49.34S372.7,286,362.21,287.59Z" style="opacity:0.30000000000000004"></path><path d="M319.46,399.72c.87-.2,56.42-4.89,56.42-4.89l.31-9.76-58.32-2.42Z" style="opacity:0.30000000000000004"></path><path d="M374.9,424.36a8.9,8.9,0,0,1-.06-1.54c0-1.09,0-2.51,0-4.22,0-3.55.11-8.47.27-13.89s.38-10.34.59-13.9c.11-1.77.21-3.21.3-4.2a8.24,8.24,0,0,1,.18-1.54,8.57,8.57,0,0,1,0,1.55c0,1.09-.08,2.51-.13,4.21-.11,3.65-.27,8.51-.44,13.89s-.31,10.24-.42,13.89c-.08,1.71-.14,3.12-.18,4.21A8.83,8.83,0,0,1,374.9,424.36Z" style="fill:#263238"></path><polygon points="191.22 431.3 210.57 431.3 213.03 426.03 192.65 426.03 191.22 431.3" style="opacity:0.30000000000000004"></polygon><polygon points="273.49 430.9 296.55 430.9 298.82 426.03 271.22 426.03 273.49 430.9" style="opacity:0.30000000000000004"></polygon><polygon points="376.16 317.43 370.62 302.94 347.52 312.23 354.65 327.69 376.16 317.43" style="fill:#ffbf9d"></polygon><path d="M354.59,325.7l11,22.31.62,7.37a4.18,4.18,0,0,0,4.52,3.82l42.8-3.61s.32-5.15-2.81-6.18S385,338.58,385,338.58l-8.85-21.21Z" style="fill:#e0e0e0"></path><path d="M354.59,325.7s.14,0,.39-.14l1.13-.42,4.29-1.61,15.78-6-.2-.09,8.8,21.22,0,.08.08,0,15.45,6.63c2.72,1.15,5.5,2.32,8.36,3.47.7.29,1.46.56,2.16.83a3.27,3.27,0,0,1,1.59,1.44,8.73,8.73,0,0,1,.9,4.45l.2-.21-.25,0-31,2.64-7,.6-3.34.29c-.55,0-1.11.11-1.62.11a3.85,3.85,0,0,1-1.5-.33,4,4,0,0,1-2.09-2.08,10.09,10.09,0,0,1-.46-2.93q-.25-3-.5-5.7v-.05l-8.14-16.24c-1-1.92-1.71-3.41-2.24-4.44l-.59-1.16c-.13-.26-.21-.4-.21-.4s.05.13.17.38.31.66.55,1.15c.5,1,1.22,2.53,2.15,4.44l8,16.41V348c.15,1.82.3,3.72.47,5.7l.12,1.5a4.78,4.78,0,0,0,.36,1.55,4.36,4.36,0,0,0,2.26,2.27,4.17,4.17,0,0,0,1.64.36c.58,0,1.1-.07,1.66-.11l3.35-.28,7-.58,31-2.6.25,0,.2,0v-.19a9.07,9.07,0,0,0-1-4.69,3.58,3.58,0,0,0-1.81-1.62c-.74-.29-1.44-.54-2.16-.83-2.85-1.15-5.63-2.32-8.35-3.46L385,338.4l.11.1c-3.36-8-6.38-15.2-8.88-21.18l-.06-.14-.14.05-15.81,6.2L356,325.11l-1.09.44A3.05,3.05,0,0,0,354.59,325.7Z" style="fill:#263238"></path><path d="M350.91,324.45l3.57,6.26a1.94,1.94,0,0,0,2.48.82l20.74-9.17a2,2,0,0,0,1.07-2.39l-2-6a2,2,0,0,0-2.63-1.19l-22.64,9.81A1.34,1.34,0,0,0,350.91,324.45Z" style="fill:#e0e0e0"></path><path d="M350.91,324.45a1.88,1.88,0,0,1-.14-.7,1.39,1.39,0,0,1,.32-.78,2.46,2.46,0,0,1,1-.57l7.12-3,10.54-4.52,3-1.31,1.56-.66a1.68,1.68,0,0,1,1.49.16,1.61,1.61,0,0,1,.56.54,3.73,3.73,0,0,1,.31.78c.18.57.37,1.14.55,1.72q.57,1.72,1.14,3.51a3.27,3.27,0,0,1,.22.84,1.8,1.8,0,0,1-.13.8,1.75,1.75,0,0,1-.48.65,3,3,0,0,1-.75.41L374,323.76l-6.18,2.75-10.47,4.68a3,3,0,0,1-1.08.36,1.84,1.84,0,0,1-1-.24c-.61-.32-.84-1-1.19-1.57l-1.69-2.87c-.45-.76-.81-1.36-1.07-1.81a4.52,4.52,0,0,0-.4-.61,3.25,3.25,0,0,0,.32.66c.25.45.58,1.07,1,1.84l1.61,2.91.49.88a2.09,2.09,0,0,0,.78.81,2.12,2.12,0,0,0,1.17.29,3.32,3.32,0,0,0,1.18-.36l10.51-4.6,6.2-2.73,3.28-1.44a3.81,3.81,0,0,0,.85-.47,2.18,2.18,0,0,0,.77-1.82,2.3,2.3,0,0,0-.1-.51l-.14-.44q-.58-1.77-1.14-3.51c-.19-.57-.38-1.15-.56-1.71a3.55,3.55,0,0,0-.36-.88,2.15,2.15,0,0,0-2.55-.87c-.56.22-1.06.45-1.59.68l-3,1.32-10.51,4.61L352,322.24a2.45,2.45,0,0,0-1.05.65,1.38,1.38,0,0,0-.3.86,1.16,1.16,0,0,0,.12.54C350.86,324.4,350.9,324.45,350.91,324.45Z" style="fill:#263238"></path><path d="M359.52,329.93a8.22,8.22,0,0,1-3-4.18,8.36,8.36,0,0,1-.5-5.12,23.24,23.24,0,0,0,1,4.94A22.39,22.39,0,0,0,359.52,329.93Z" style="fill:#263238"></path><path d="M367.38,326.92A34.27,34.27,0,0,1,363,317.6a36.28,36.28,0,0,1,2.29,4.61A35.83,35.83,0,0,1,367.38,326.92Z" style="fill:#263238"></path><path d="M375.48,323a17.27,17.27,0,0,0-2-4.77,17.87,17.87,0,0,0-3.69-3.64,3.4,3.4,0,0,1,1.43.66,9.88,9.88,0,0,1,4.2,6.17A3.33,3.33,0,0,1,375.48,323Z" style="fill:#263238"></path><path d="M375.61,358.55c-.08,0-.23-.76-.73-1.91a11,11,0,0,0-7-6.32c-1.19-.37-2-.44-2-.53A5,5,0,0,1,368,350a10.21,10.21,0,0,1,7.25,6.54A4.74,4.74,0,0,1,375.61,358.55Z" style="fill:#263238"></path><path d="M401.5,356.61a3.23,3.23,0,0,1-.51-1.46,6.56,6.56,0,0,1,.44-3.73,9.26,9.26,0,0,1,2.19-3,4.1,4.1,0,0,1,1.25-.91c.05.06-.37.47-1,1.16a11.48,11.48,0,0,0-2,3,7.49,7.49,0,0,0-.55,3.48A8.27,8.27,0,0,1,401.5,356.61Z" style="fill:#263238"></path><path d="M376.19,307.62s-14.81-33.49-19.89-45.32-10.63-29.15-30.95-25.2-28.17,42.07-34,55.65-9,32.65-9,32.65l49.4-8.1,1.61-23s3.24,8.69,5.78,11.69S352,320.34,352,320.34Z" style="fill:#263238"></path><path d="M333.9,294.1a3.73,3.73,0,0,1-.45-1,22.6,22.6,0,0,1-.88-2.79,28.5,28.5,0,0,1-.74-4.29,31.38,31.38,0,0,1,0-5.33,29.8,29.8,0,0,1,2.33-9.37,21.64,21.64,0,0,1,1.31-2.62,4.4,4.4,0,0,1,.6-.89c.08,0-.68,1.37-1.57,3.65a33.28,33.28,0,0,0-2.15,9.27,35.41,35.41,0,0,0,0,5.25,34.29,34.29,0,0,0,.63,4.25C333.45,292.64,334,294.07,333.9,294.1Z" style="fill:#455a64"></path><polygon points="309.31 305.18 333.03 298.13 333.03 301.66 310.62 309.25 309.31 305.18" style="opacity:0.30000000000000004"></polygon><path d="M335.54,298.13s12.52-3.24,19.78,1.15,8.6,6.72,10.48,11.11-1,19.57-1,19.57l-28.12-29-1.14-2.39" style="opacity:0.30000000000000004"></path><path d="M352.05,353.69a43.51,43.51,0,0,0,13.13-26.34,31.24,31.24,0,0,0-1.54-14.74,20.23,20.23,0,0,0-9.63-11c-6.63-3.26-14.54-1.87-21.67.06a163.51,163.51,0,0,0-26.69,9.81v43.68Z" style="fill:#263238"></path><path d="M352.05,353.69s-.28,0-.83.05l-2.46.11-9.37.36-33.74,1.16h-.22v-.22c0-12.68,0-27.61,0-43.68v-.16l.15-.07c3-1.39,6.14-2.78,9.4-4.07a159,159,0,0,1,19.26-6.25,45.72,45.72,0,0,1,9.53-1.49,22.48,22.48,0,0,1,9.15,1.4A18.43,18.43,0,0,1,360,306a22.64,22.64,0,0,1,4.11,7.22A32.12,32.12,0,0,1,365.28,328a43.3,43.3,0,0,1-3.34,11.8,44.15,44.15,0,0,1-4.64,8,42.94,42.94,0,0,1-3.77,4.47c-.48.48-.86.83-1.1,1.06l-.38.35.35-.39,1.05-1.09a47.19,47.19,0,0,0,3.69-4.52,45.1,45.1,0,0,0,4.53-8A43.09,43.09,0,0,0,364.91,328a31.7,31.7,0,0,0-1.22-14.57,22.24,22.24,0,0,0-4.05-7.07,17.9,17.9,0,0,0-6.94-5,22.1,22.1,0,0,0-8.95-1.36,46.46,46.46,0,0,0-9.43,1.49,162,162,0,0,0-19.18,6.24c-3.26,1.29-6.43,2.67-9.38,4.06l.15-.24c0,16.07,0,31,0,43.68l-.23-.22,33.68-1,9.39-.24,2.48-.05C351.75,353.67,352.05,353.69,352.05,353.69Z" style="fill:#455a64"></path><path d="M355.43,335.34a10.84,10.84,0,0,1-1.07,1.17c-.71.74-1.79,1.76-3.17,3s-3.1,2.55-5.07,4a73.51,73.51,0,0,1-6.7,4.15,72,72,0,0,1-7.13,3.34A63.69,63.69,0,0,1,326.2,353c-1.76.51-3.2.86-4.2,1.05a8.23,8.23,0,0,1-1.57.25,10.14,10.14,0,0,1,1.52-.45c1-.25,2.41-.65,4.15-1.2s3.78-1.27,6-2.18,4.62-2,7.06-3.36a78.19,78.19,0,0,0,6.67-4.09c2-1.37,3.71-2.68,5.11-3.85s2.52-2.12,3.27-2.82A8.2,8.2,0,0,1,355.43,335.34Z" style="fill:#455a64"></path><path d="M299.51,267.53s-.56-3.51-2.69-3.95-5,1.19-5.83,3.57a19.12,19.12,0,0,0-.94,5.33Z" style="fill:#ffbf9d"></path><path d="M292.06,270.51c-.06,0-.28-.2-.49-.67a4,4,0,0,1-.27-2A4,4,0,0,1,292,266c.31-.41.59-.58.63-.54a11.9,11.9,0,0,0-.84,2.46A11.62,11.62,0,0,0,292.06,270.51Z" style="fill:#ff9a6c"></path><path d="M308.23,270s2.32,0,2.38,2.07a4.42,4.42,0,0,1-1.5,3.34s2.95,4.31-1.82,5.69c0,0,.94,3.26-2.38,3.89a12.93,12.93,0,0,1-5.08,3.39c-3.64,1.5-10.47-1.82-10.47-1.82l-1.2-11.6,12.67-6.15Z" style="fill:#ffbf9d"></path><path d="M302.75,275.65a6.07,6.07,0,0,1,3.26-.77,6,6,0,0,1,3.3.55c0,.14-1.48-.1-3.28,0S302.8,275.79,302.75,275.65Z" style="fill:#ff9a6c"></path><path d="M295.11,282a6.06,6.06,0,0,0,1.67.59,14.51,14.51,0,0,0,4.3-.55,38.16,38.16,0,0,1,6.21-.94,37.85,37.85,0,0,1-6.11,1.45c-.85.16-1.65.33-2.41.44a6,6,0,0,1-2,0C295.54,282.65,295.05,282,295.11,282Z" style="fill:#ff9a6c"></path><path d="M304.91,285a3.24,3.24,0,0,1-1.28.35,11.62,11.62,0,0,1-3.21.17,4.25,4.25,0,0,1-3-1.32,1.21,1.21,0,0,1-.2-1c.06-.23.14-.34.17-.33s-.14.57.32,1.13a4.52,4.52,0,0,0,2.75,1,18.72,18.72,0,0,0,3.11,0A3.72,3.72,0,0,1,304.91,285Z" style="fill:#ff9a6c"></path><path d="M287.26,249.29a17.88,17.88,0,0,0-2.11-6.94c-4.56-9.23-12.38-16.7-15.94-26.36-3.65-9.91-5.76-25.71-4.42-36.2l-15.43,63.45c1.83,5.64,19,15.77,23,20.16,2.58,2.83,6.23,5.49,9.94,4.53a6.71,6.71,0,0,0,4.71-5.2,7.91,7.91,0,0,0-2.15-6.79A8.39,8.39,0,0,0,287.26,249.29Z" style="fill:#263238"></path><path d="M203.89,180.36c6.75-16.88,15.25-35.27,40-27.87,0,0,18.61,5.51,21.14,20.41,1.37,8.06-6.64,35.29-11,58.31l-3.87,30L202.2,237.48S187.4,221.62,203.89,180.36Z" style="fill:#263238"></path><path d="M244.75,158.84,243.5,157,225,160.09a4.86,4.86,0,0,0-5.49,3.6l-11.26,57.37,22.08,17.39C231.84,234.11,235,226,235,226c1.38-4.82,1.93-6.8,1.92-6.75s10.66,1.09,16.41-11.63c2.86-6.33,4.61-15.52,6.2-24.6C261.72,170.44,254.75,161,244.75,158.84Z" style="fill:#ffbf9d"></path><path d="M237.39,188.16a1.77,1.77,0,0,1-2.11,1.28,1.69,1.69,0,0,1-1.34-2,1.77,1.77,0,0,1,2.11-1.28A1.69,1.69,0,0,1,237.39,188.16Z" style="fill:#263238"></path><path d="M254,192.21a1.76,1.76,0,0,1-2.12,1.27,1.68,1.68,0,0,1-1.33-2,1.76,1.76,0,0,1,2.11-1.27A1.69,1.69,0,0,1,254,192.21Z" style="fill:#263238"></path><path d="M257,186.16c-.27.17-1.3-1.14-3.14-1.64s-3.44,0-3.57-.23c-.07-.12.25-.46,1-.73a4.8,4.8,0,0,1,2.93-.09,4.59,4.59,0,0,1,2.42,1.58C257,185.64,257.09,186.09,257,186.16Z" style="fill:#263238"></path><path d="M238.08,182.2c-.29.14-1.19-1.27-3-1.95s-3.42-.3-3.53-.6c-.06-.13.3-.44,1-.63a4.92,4.92,0,0,1,2.93.21,4.66,4.66,0,0,1,2.25,1.83C238.18,181.68,238.21,182.15,238.08,182.2Z" style="fill:#263238"></path><path d="M241.58,197.15a12.45,12.45,0,0,1,3.13.28c.48.08.95.11,1.12-.19a2.5,2.5,0,0,0,.07-1.48c-.13-1.25-.27-2.57-.41-3.95-.54-5.61-.79-10.17-.56-10.19s.84,4.51,1.38,10.12c.12,1.38.23,2.7.34,4a2.81,2.81,0,0,1-.26,1.9,1.21,1.21,0,0,1-1,.48,3.19,3.19,0,0,1-.82-.11A12.44,12.44,0,0,1,241.58,197.15Z" style="fill:#263238"></path><path d="M236.91,219.23a35.18,35.18,0,0,1-16.52-9.63s2,10.43,15.62,12.83Z" style="fill:#ff9a6c"></path><path d="M239.6,201.36a3.45,3.45,0,0,0-2.63-2,3.14,3.14,0,0,0-2.4.55,2,2,0,0,0-.74,2.15,2.31,2.31,0,0,0,2.24,1.27,7.2,7.2,0,0,0,2.73-.76,2.25,2.25,0,0,0,.67-.4.64.64,0,0,0,.19-.69" style="fill:#ff9a6c"></path><path d="M235.83,196.94c.3.07-.24,2.06,1.08,3.94s3.5,2.24,3.44,2.53c0,.13-.58.25-1.48,0a5.1,5.1,0,0,1-2.9-2,4.43,4.43,0,0,1-.78-3.27C235.34,197.33,235.7,196.89,235.83,196.94Z" style="fill:#263238"></path><path d="M241.45,175.36c-.36.41-2-.5-4.23-1.06s-4.08-.64-4.19-1.18c0-.25.42-.59,1.28-.8a7.41,7.41,0,0,1,3.41.11,7.21,7.21,0,0,1,3,1.6C241.37,174.63,241.61,175.16,241.45,175.36Z" style="fill:#263238"></path><path d="M258.45,178.13c-.44.33-1.58-.45-3.1-.89s-2.88-.49-3.06-1c-.07-.25.24-.61.92-.85a4.63,4.63,0,0,1,5,1.52C258.59,177.49,258.65,178,258.45,178.13Z" style="fill:#263238"></path><path d="M214.67,187.37s8.86,5.06,19.41-17.22c3.61-7.62,12.48-12.48,12.48-12.48l-2.81-1.58s-19.92,1.15-20.29,1.32-6.87,8.66-6.87,8.66Z" style="fill:#263238"></path><path d="M217.21,187c.26-1-.24-3.64-1.18-4.07-2.5-1.12-7.27-2.2-9.13,4.43-2.54,9.05,7.08,9.74,7.17,9.48S216.28,190.44,217.21,187Z" style="fill:#ffbf9d"></path><path d="M212.26,192.65s-.19.07-.49.12a1.66,1.66,0,0,1-1.18-.31c-.86-.62-1.24-2.36-.83-4a5.37,5.37,0,0,1,1.08-2.13,1.88,1.88,0,0,1,1.53-.88.83.83,0,0,1,.81.69c0,.29-.06.46,0,.48s.24-.09.27-.49a1,1,0,0,0-.2-.66,1.22,1.22,0,0,0-.8-.48,2.31,2.31,0,0,0-2.05.94,5.56,5.56,0,0,0-1.25,2.37c-.46,1.84,0,3.81,1.2,4.56a1.76,1.76,0,0,0,1.51.16C212.18,192.87,212.29,192.68,212.26,192.65Z" style="fill:#ff9a6c"></path><path d="M264.5,284.4l12.32-7.53s-7.23-25-10.27-34.58a10.54,10.54,0,0,0-.69-1.71l-1-2c-2.06-3.45-6.08-9.69-13.06-11.82l-13.49-4.27s-5.22,11-29.63-3.74c0,0-14.71,5.69-22.75,15.65-8.26,10.24,2.33,30.23,2.33,30.23l20,42.27-6.37,18.92,63.94-28.5s-1.08-6-1.6-13.71Z" style="fill:#e0e0e0"></path><path d="M229.91,236.21a15.54,15.54,0,0,0-5.44-8.79c-2.15-1.6-4.76-2.44-7.12-3.7s-4.64-3.2-5.15-5.83c-.64-3.25,3.68-9.44-.32-16.67L197.2,215.09c.8,9.8,4.61,18.83,10.25,26.88s15.59,19.42,20.23,28.1c1.68-5.68,2.36-17.47,2.79-23.37A33.55,33.55,0,0,0,229.91,236.21Z" style="fill:#263238"></path><g style="opacity:0.30000000000000004"><path d="M226.53,211.43a6,6,0,0,1-2.93-2.23,6.38,6.38,0,0,1-.3-3.48,4.11,4.11,0,0,0-.82-3.33l-1.55.33a9.93,9.93,0,0,0-3,9.3,14.67,14.67,0,0,0,5.41,8.44A10.44,10.44,0,0,0,229,223c3.16.24,6.06-1.6,8.69-3.36A39.21,39.21,0,0,0,226.53,211.43Z" style="fill:#ff9a6c"></path></g><path d="M240,225.29s0-4.75-3.8-6.49-13.9-7.18-13.9-7.18l-1.09-1.5a12.77,12.77,0,0,0,0-3.4c-.27-1.5,1.79-3.2,1.52-5.6s-1.54-2.35-1.54-2.35l-.9,1s-1.29-2.88-2.67-.93c0,0-2.81,11.38-3.08,13a9.29,9.29,0,0,0,0,3s-.92,2.4-.44,3.35c0,0-1,2.25-.14,3.7s1.83,2,4.21,2.85a54.52,54.52,0,0,1,9.12,5l-.22,9.93,14.71-1.61S240.19,226.92,240,225.29Z" style="fill:#ffbf9d"></path><path d="M240,225.29l0,.22c0,.17.07.39.11.65q.15.92.39,2.52l1.39,9.46,0,.17h-.17L227.09,240l-.25,0v-.25c.06-3.07.13-6.42.2-9.93l.07.18a33.2,33.2,0,0,0-3.85-2.39c-1.37-.75-2.79-1.5-4.25-2.17s-3.17-1-4.47-2.3a5.81,5.81,0,0,1-.81-1,2.9,2.9,0,0,1-.4-1.33,6.06,6.06,0,0,1,.53-2.62v.23a2.71,2.71,0,0,1-.12-1.48,9.73,9.73,0,0,1,.31-1.4c.08-.23.15-.45.24-.68l0,.14a9.64,9.64,0,0,1,.28-4.29q.49-2,1-4.05,1-4,1.85-7.8l0-.05,0,0a2.07,2.07,0,0,1,.81-.7,1.19,1.19,0,0,1,1.1.14,3.8,3.8,0,0,1,1.19,1.53l-.4-.06.9-1,.07-.1h.1a1.76,1.76,0,0,1,1.43,1.15,4.81,4.81,0,0,1,.37,1.65,6.17,6.17,0,0,1-.85,3.12,10.66,10.66,0,0,0-.6,1.36,2.61,2.61,0,0,0,0,1.39,13.14,13.14,0,0,1-.08,3l0-.15,1.08,1.5-.07-.06c3.16,1.71,6.05,3.24,8.6,4.58l3.58,1.84a15.64,15.64,0,0,1,3,1.66,7.24,7.24,0,0,1,2.27,4.12,7.49,7.49,0,0,1,.16,1.23,1.48,1.48,0,0,1,0,.42s0-.14-.06-.42a9.46,9.46,0,0,0-.22-1.21,7.31,7.31,0,0,0-2.3-4,15.66,15.66,0,0,0-3-1.58l-3.61-1.8c-2.57-1.31-5.47-2.83-8.65-4.52l0,0,0,0-1.09-1.5-.05-.06v-.09a12.81,12.81,0,0,0,.06-2.84c0-.25-.07-.45-.09-.76a2.41,2.41,0,0,1,.13-.81,10.82,10.82,0,0,1,.62-1.43,5.67,5.67,0,0,0,.79-2.89,4.15,4.15,0,0,0-.34-1.48,1.34,1.34,0,0,0-1-.87l.17-.08-.89,1-.24.28-.17-.34a3.44,3.44,0,0,0-1-1.31c-.43-.32-.89-.06-1.23.43l0-.09c-.59,2.52-1.21,5.12-1.83,7.78-.32,1.33-.63,2.68-1,4a9.07,9.07,0,0,0-.29,4.1l0,.07,0,.07c-.08.21-.15.43-.22.65a9.26,9.26,0,0,0-.3,1.32,2.22,2.22,0,0,0,.08,1.17l0,.11,0,.12a5.44,5.44,0,0,0-.48,2.37,2.52,2.52,0,0,0,.32,1.09,5.76,5.76,0,0,0,.74.95c1.13,1.14,2.81,1.5,4.31,2.19s2.9,1.45,4.28,2.21a31.07,31.07,0,0,1,3.95,2.47l.07.06v.12c-.08,3.51-.16,6.86-.24,9.93l-.24-.22L241.75,238l-.14.19c-.52-4-1-7.25-1.24-9.49-.13-1.08-.23-1.92-.31-2.53,0-.27-.05-.48-.07-.65A.68.68,0,0,1,240,225.29Z" style="fill:#ff9a6c"></path><path d="M218.09,217.72a1.15,1.15,0,0,1-.78-.15,2.73,2.73,0,0,1-1.36-1.69,9.22,9.22,0,0,1-.09-3.18,36.07,36.07,0,0,1,.48-3.83,22.2,22.2,0,0,1,2.26-6.63,13.48,13.48,0,0,1,1.16-1.78c.32-.4.51-.6.53-.58s-.59.94-1.36,2.53a25.66,25.66,0,0,0-2.07,6.56c-.25,1.32-.41,2.6-.52,3.77a10.14,10.14,0,0,0,0,3,2.63,2.63,0,0,0,1.11,1.6C217.82,217.64,218.1,217.67,218.09,217.72Z" style="fill:#ff9a6c"></path><path d="M215.75,220.6c-.06.12-1-.35-1.55-1.48a2.24,2.24,0,0,1-.15-2.13c.15,0,.14.93.62,1.91S215.84,220.48,215.75,220.6Z" style="fill:#ff9a6c"></path><path d="M246.37,247.1s6.31,14.11,4.8,28.55c-.93,8.93-2.88,17.78-2.88,17.78l-8.48-8.16Z" style="opacity:0.30000000000000004"></path><path d="M206.39,240.83c6.18,6.37,19.38,25.18,19.38,25.18V237.46l19-2.21s4.51,28.74,3.38,40.6-5.07,24.91-17.27,25.91-28.92-18.16-36.06-30.48-11.66-17.2-11.29-24.44" style="fill:#e0e0e0"></path><path d="M183.49,246.84s0,.21,0,.6c0,.2,0,.44,0,.73l.09,1a17.36,17.36,0,0,0,.56,2.77,24.76,24.76,0,0,0,1.43,3.57c1.28,2.62,3.2,5.63,5.38,9.15,1.09,1.76,2.26,3.65,3.44,5.67s2.49,4.14,4,6.27a97.21,97.21,0,0,0,10.89,13,64.79,64.79,0,0,0,7.13,6.23,32.49,32.49,0,0,0,8.71,4.82,14.87,14.87,0,0,0,5.05.84l.65,0,.64-.09,1.31-.2c.43-.07.84-.23,1.27-.34a7.68,7.68,0,0,0,1.25-.43l1.21-.55a11.39,11.39,0,0,0,1.15-.7,14.63,14.63,0,0,0,2.13-1.65,19.77,19.77,0,0,0,3.33-4.35,35.81,35.81,0,0,0,3.75-10.67A57.76,57.76,0,0,0,248,270.88c-.08-6.24-.64-12.36-1.28-18.31s-1.42-11.72-2.26-17.28l.27.21-19,2.19.21-.23c0,10.7,0,20.32-.05,28.55v.56l-.32-.46c-5.69-8.08-10.43-14.46-13.81-18.76-1.69-2.16-3-3.78-4-4.87-.46-.55-.84-.94-1.08-1.22l-.36-.43.4.39c.25.27.64.65,1.12,1.19,1,1.07,2.34,2.68,4.06,4.81,3.42,4.28,8.21,10.62,13.94,18.69l-.32.1c0-8.23,0-17.85-.05-28.55v-.2l.2,0,19-2.23.24,0,0,.24c.85,5.57,1.62,11.35,2.28,17.3s1.21,12.08,1.29,18.36a57.89,57.89,0,0,1-1.16,11.75,36.47,36.47,0,0,1-3.81,10.82,20.59,20.59,0,0,1-3.43,4.47,15.66,15.66,0,0,1-2.21,1.7,11.07,11.07,0,0,1-1.19.72l-1.25.57a7.65,7.65,0,0,1-1.3.44c-.44.12-.87.28-1.31.36l-1.34.19-.67.1-.68,0a15.4,15.4,0,0,1-5.21-.87,33,33,0,0,1-8.84-4.92A64.46,64.46,0,0,1,209,290a97.74,97.74,0,0,1-10.9-13.14c-1.49-2.14-2.79-4.27-4-6.31s-2.33-3.92-3.41-5.69c-2.16-3.53-4-6.56-5.31-9.21A24.3,24.3,0,0,1,184,252a17.19,17.19,0,0,1-.52-2.8q0-.57-.06-1c0-.28,0-.53,0-.73C183.47,247,183.49,246.84,183.49,246.84Z" style="fill:#263238"></path><path d="M229.59,284.47a10.27,10.27,0,0,1-1.36-2.48,30.9,30.9,0,0,1-2.64-13.32,10.89,10.89,0,0,1,.31-2.81,27.13,27.13,0,0,1,.06,2.81,38.09,38.09,0,0,0,2.61,13.18A26.27,26.27,0,0,1,229.59,284.47Z" style="fill:#263238"></path><path d="M264.84,288.85a4.64,4.64,0,0,1-.15-.82c-.08-.6-.18-1.38-.31-2.33-.24-2.09-.58-4.95-1-8.37v0l0-.06a27.6,27.6,0,0,0,1.19-13.3,46.21,46.21,0,0,0-2.46-9.43c-1-2.83-2.13-5.31-3.08-7.38l-2.3-4.89c-.25-.53-.45-1-.62-1.33a2.53,2.53,0,0,1-.18-.49,2.44,2.44,0,0,1,.28.44l.7,1.29c.6,1.13,1.45,2.77,2.45,4.82s2.14,4.54,3.2,7.37a45.46,45.46,0,0,1,2.53,9.52,27.51,27.51,0,0,1-1.3,13.54v-.1c.32,3.42.6,6.29.79,8.38.08,1,.14,1.74.19,2.35A3.74,3.74,0,0,1,264.84,288.85Z" style="fill:#263238"></path><path d="M207,197.46a3.87,3.87,0,1,0,4.6-2.94A3.87,3.87,0,0,0,207,197.46Z" style="fill:#455a64"></path><path d="M194,227s1.77,4.65,2.1,13.42S192,272.48,192,272.48l-4.26-9L191.44,229Z" style="opacity:0.30000000000000004"></path><polygon points="261.01 287.08 270.98 277.06 288.6 275.17 296.37 280.05 294.22 282.9 261.01 287.08" style="fill:#e0e0e0"></polygon><polygon points="299.9 276.79 322.45 261.24 320.95 260.19 313.25 261.24 299.9 270.51 299.9 276.79" style="fill:#e0e0e0"></polygon><path d="M225.38,300.17l3.79-7.85,36.6-15.95s15.8-6.37,22.71-4c0,0,27.63-13.49,30-14l6.21,1.44s-19,8-21.2,9.84-3.44,3.89-2.92,9l-5,3.26a21,21,0,0,0-14.08-3.1C274.16,279.8,225.38,300.17,225.38,300.17Z" style="fill:#fff"></path><path d="M225.38,300.17l.33-.16,1-.43,3.79-1.61c3.31-1.39,8.16-3.41,14.29-5.9s13.54-5.48,22-8.68c2.12-.81,4.31-1.6,6.57-2.41s4.59-1.62,7.07-2.21a19.12,19.12,0,0,1,7.76-.07,21,21,0,0,1,7.55,3h-.28l5-3.27-.11.23a17.5,17.5,0,0,1,0-3.83,7.45,7.45,0,0,1,1.38-3.7,9,9,0,0,1,3.08-2.55c1.17-.62,2.37-1.21,3.58-1.79,4.85-2.29,9.9-4.49,15.05-6.7l1.21-.52,0,.49-6.21-1.44h.12a41.61,41.61,0,0,0-4,1.64l-3.9,1.78L303,265.6l-14.45,7-.09,0-.1,0a14.49,14.49,0,0,0-5.16-.44,38.59,38.59,0,0,0-5.08.72,78.34,78.34,0,0,0-9.46,2.68,46.2,46.2,0,0,0-4.35,1.7L260.21,279l-7.77,3.37-23.23,10,0-.05c-2.42,4.85-3.58,7.19-3.88,7.8.29-.62,1.39-3,3.7-7.89v0l0,0L252.3,282l7.75-3.39,4.14-1.81c1.39-.64,2.86-1.21,4.37-1.73a78.14,78.14,0,0,1,9.51-2.71,35.74,35.74,0,0,1,5.14-.74,14.79,14.79,0,0,1,5.35.45l-.19,0,14.45-7,7.61-3.6,3.91-1.79a41.66,41.66,0,0,1,4.07-1.67l0,0,.07,0,6.21,1.44.78.18-.74.31-1.2.51c-5.15,2.22-10.2,4.42-15,6.7-1.21.57-2.4,1.16-3.55,1.77a9.45,9.45,0,0,0-1.61,1,8.46,8.46,0,0,0-1.31,1.37,6.93,6.93,0,0,0-1.29,3.45,17.14,17.14,0,0,0,0,3.72v.15l-.12.08-5,3.27-.13.09-.15-.1a20.27,20.27,0,0,0-14.93-2.84c-2.42.57-4.75,1.4-7,2.17s-4.46,1.59-6.58,2.39c-8.49,3.16-15.91,6.13-22.06,8.57l-14.34,5.77-3.82,1.54-1,.39Z" style="fill:#263238"></path><path d="M222.9,301l26.64-2.29,45.22-16,6-3.71-.15-.79-5.33,3.27s0-1.29-1.8-1.33c-.83,0-33.43,3.89-33.43,3.89l-37.42,16.17Z" style="fill:#455a64"></path><path d="M326.56,257.5l.9,1.1-26.93,18.79a13.51,13.51,0,0,1,0-2.31Z" style="fill:#455a64"></path><path d="M297.47,277.94a33.91,33.91,0,0,0-5.25-3.85,26.09,26.09,0,0,0-6.13-2.15,4.94,4.94,0,0,1,1.94.11,15.39,15.39,0,0,1,4.43,1.58,16.46,16.46,0,0,1,3.79,2.8A5.23,5.23,0,0,1,297.47,277.94Z" style="fill:#263238"></path><path d="M299.9,266.89c.06.07-.48.51-1.16,1.37a9.82,9.82,0,0,0-1.86,3.77,8.44,8.44,0,0,0,.12,4.18,12.57,12.57,0,0,1,.47,1.73,4.33,4.33,0,0,1-.83-1.63,7.91,7.91,0,0,1-.27-4.41,8.81,8.81,0,0,1,2.09-3.88A4,4,0,0,1,299.9,266.89Z" style="fill:#263238"></path><g style="opacity:0.30000000000000004"><path d="M222.59,316.91c-6.17,2.52-14.55,5.55-21,3.89-7.29-1.86-11.3-9.47-15.22-15.89-3.11-7.11-5.6-15.78-7.76-25.26a82.57,82.57,0,0,0,5.59,25c3,7.91,7.43,15.95,15.13,19.46,8.08,3.68,15.55-1,23.88-4.12s14.52-7.36,22.41-11.43A111.52,111.52,0,0,1,272,298.69C257,299.66,239.2,310.12,222.59,316.91Z"></path></g><path d="M384.68,353.29s21.82-1.75,24.46,5.72-.46,21.79-4,24-89.08,5.5-90.84.66-7.59-25,.82-27.44S384.68,353.29,384.68,353.29Z" style="fill:#FF725E"></path><path d="M190.83,426a9.15,9.15,0,0,1-8.8-6.66c-7.87-27.86-38.13-134.84-45.93-159.77-7.75-24.77-14.14-55.4-16.29-66.2a6.12,6.12,0,0,1,2.67-6.35c10.9-7.06,44.76-26.1,60.63-1.77,19.06,29.22,0,69.24,6.35,90.84s12.07,37.48,33.67,26.68,64.29-25.1,75.09-21.29,11.3,14.3,13.84,43.52c1.95,22.44,7.27,70,9.64,90.83A9.15,9.15,0,0,1,312.61,426Z" style="fill:#FF725E"></path><path d="M308.59,394.83a.94.94,0,0,1-.07-.3l-.15-.9c-.13-.78-.28-1.94-.48-3.43-.38-3-.91-7.35-1.57-12.67-1.24-10.73-3-25.5-4.85-41.81-.47-4.08-.93-8.07-1.38-11.92-.22-1.93-.45-3.82-.67-5.67-.11-.92-.23-1.83-.34-2.74a17.74,17.74,0,0,0-.48-2.61c-.5-1.67-2-2.65-3.33-3.71a21.79,21.79,0,0,1-3.46-3.54,18.63,18.63,0,0,1-3.7-8,14.83,14.83,0,0,1,.4-7.26,14.18,14.18,0,0,1,2.59-4.86,11.93,11.93,0,0,1,2.56-2.34c.33-.24.61-.36.78-.47l.27-.14a14.64,14.64,0,0,0-3.46,3.08,14.4,14.4,0,0,0-2.46,4.81,14.67,14.67,0,0,0-.32,7.11,18.47,18.47,0,0,0,3.68,7.81,21.36,21.36,0,0,0,3.41,3.45c.64.53,1.35,1,2,1.64a5.37,5.37,0,0,1,1.49,2.28,16.77,16.77,0,0,1,.51,2.69l.36,2.75q.33,2.78.68,5.67c.45,3.85.91,7.84,1.38,11.92,1.84,16.32,3.5,31.09,4.71,41.83.59,5.33,1.06,9.65,1.4,12.68.16,1.47.29,2.63.38,3.45,0,.37.07.67.1.9S308.59,394.82,308.59,394.83Z" style="fill:#263238"></path><path d="M312,425.49a4.07,4.07,0,0,1,.76-.28l.91-.29c.36-.12.75-.34,1.2-.54a8.93,8.93,0,0,0,1.4-.84,10.19,10.19,0,0,0,3.9-5.27,16.17,16.17,0,0,0,.9-5.64c0-1-.19-2.1-.3-3.21s-.26-2.24-.39-3.41l-1.69-15.21c-1.15-10.77-2.2-20.52-3-27.64-.35-3.49-.63-6.34-.84-8.38-.08-.95-.15-1.71-.2-2.28a4,4,0,0,1,0-.8,7.48,7.48,0,0,1,.14.79c.07.57.17,1.32.29,2.27.25,2,.59,4.87,1,8.37.8,7.11,1.9,16.85,3.11,27.62.58,5.39,1.14,10.53,1.65,15.21.12,1.16.24,2.3.36,3.41s.28,2.18.28,3.25a16.4,16.4,0,0,1-1,5.78,11.93,11.93,0,0,1-2.56,4.09,10.49,10.49,0,0,1-1.55,1.25,7.8,7.8,0,0,1-1.46.82c-.46.19-.85.4-1.22.51l-.95.24A6.81,6.81,0,0,1,312,425.49Z" style="fill:#263238"></path><path d="M285.47,299.42s-.25,0-.73-.15-1.19-.31-2.14-.45a38.85,38.85,0,0,0-8.34-.56,52.32,52.32,0,0,0-13,2.3,78.81,78.81,0,0,0-7.78,2.8c-2.7,1.13-5.48,2.52-8.42,3.91-5.89,2.81-12.34,5.88-19.48,8.71-3.57,1.4-7.26,2.86-11.17,4.08a35.76,35.76,0,0,1-6.1,1.34,17.87,17.87,0,0,1-6.42-.34,15.7,15.7,0,0,1-5.81-3.12,33.34,33.34,0,0,1-4.83-4.68,31.48,31.48,0,0,1-3.88-5.68,26,26,0,0,1-1.46-3.17c-.43-1.08-.87-2.17-1.28-3.26a121.16,121.16,0,0,1-4.44-13.62A76.54,76.54,0,0,1,177.88,273a114.87,114.87,0,0,1,.21-14.75c.32-4.84.83-9.6,1.44-14.25s1.27-9.21,1.94-13.68a121.56,121.56,0,0,0,1.46-13.12,45.16,45.16,0,0,0-1.08-12.44,35.47,35.47,0,0,0-4.6-10.81,30.79,30.79,0,0,0-3.46-4.4,25.86,25.86,0,0,0-4.13-3.47,24,24,0,0,0-9.36-3.71,37.81,37.81,0,0,0-17.3,1.42,75.41,75.41,0,0,0-12.23,5.06c-3.25,1.66-5.76,3-7.49,3.81l-2,.94-.68.29.66-.34,1.95-1c1.71-.87,4.2-2.21,7.43-3.9a75.25,75.25,0,0,1,12.25-5.16A38,38,0,0,1,160.36,182a24.58,24.58,0,0,1,9.53,3.75,26.61,26.61,0,0,1,4.2,3.51,31.47,31.47,0,0,1,3.52,4.45,35.62,35.62,0,0,1,4.68,10.94,45,45,0,0,1,1.12,12.57A124.59,124.59,0,0,1,182,230.35c-.67,4.46-1.32,9-1.92,13.67s-1.12,9.38-1.43,14.21a114,114,0,0,0-.21,14.69c.53,9.93,3.31,19.33,6.69,28,.41,1.1.85,2.18,1.27,3.26a28.58,28.58,0,0,0,1.43,3.13,32.27,32.27,0,0,0,3.82,5.59,33,33,0,0,0,4.76,4.62,15.35,15.35,0,0,0,5.62,3,17.79,17.79,0,0,0,6.25.34,36.67,36.67,0,0,0,6-1.32c3.88-1.2,7.58-2.65,11.14-4,7.13-2.81,13.59-5.86,19.48-8.64,3-1.38,5.73-2.77,8.45-3.88a76.69,76.69,0,0,1,7.83-2.78,52,52,0,0,1,13.09-2.22,36.62,36.62,0,0,1,8.37.66C284.5,299.11,285.47,299.42,285.47,299.42Z" style="fill:#263238"></path><path d="M392,384.57a6.53,6.53,0,0,1-.75.08l-2.14.15-7.87.44c-6.65.34-15.84.77-26,1s-19.38,0-26-.36l-7.87-.42-2.14-.13a6.53,6.53,0,0,1-.75-.08,3.63,3.63,0,0,1,.75,0l2.14,0,7.89.25c6.65.25,15.84.47,26,.21s19.35-.6,26-.85l7.88-.27,2.15-.05A3.33,3.33,0,0,1,392,384.57Z" style="fill:#263238"></path></g><g id="freepik--Table--inject-11"><rect x="86.83" y="267.3" width="2.8" height="27.05" style="fill:#263238"></rect><rect x="70.97" y="301.51" width="34.53" height="64.21" style="fill:#455a64"></rect><rect x="78.01" y="292.53" width="21.03" height="8.99" style="fill:#455a64"></rect><rect x="48.98" y="246.31" width="75.7" height="40.63" style="fill:#e0e0e0"></rect><path d="M124.68,286.94s0-.26,0-.74l0-2.13c0-1.88,0-4.62,0-8.13,0-7-.06-17.17-.11-29.63l.2.19L49,246.57h0l.26-.26c0,14.35,0,28.09,0,40.63l-.25-.25,54.38.12,15.67.07,4.19,0h1.08l.38,0h-.35l-1.06,0-4.13,0-15.62.06L49,287.18h-.24v-.24c0-12.54,0-26.28,0-40.63v-.26H49l75.69.06h.2v.2c0,12.51-.08,22.69-.11,29.75,0,3.49,0,6.22,0,8.09,0,.9,0,1.6,0,2.09S124.68,286.94,124.68,286.94Z" style="fill:#263238"></path><path d="M105.35,301.51c0,.15-7.67.27-17.12.27s-17.11-.12-17.11-.27,7.66-.27,17.11-.27S105.35,301.36,105.35,301.51Z" style="fill:#263238"></path><rect x="33.85" y="365.52" width="105.36" height="34.84" style="fill:#ae7461"></rect><polygon points="37.68 473.94 45.29 400.37 55.5 400.37 43.61 473.98 37.68 473.94" style="fill:#ae7461"></polygon><polygon points="142.55 473.92 131.12 400.37 120.91 400.37 136.61 473.96 142.55 473.92" style="fill:#ae7461"></polygon><rect x="44.56" y="438.64" width="88.65" height="7.93" style="fill:#ae7461"></rect><path d="M93.57,368.24a6.8,6.8,0,1,0,13.59,0Z" style="fill:#263238"></path><path d="M58.13,400.29c-.14,0-.26-7.77-.26-17.35s.12-17.34.26-17.34.26,7.76.26,17.34S58.27,400.29,58.13,400.29Z" style="fill:#263238"></path><path d="M138.92,400.29c0,.14-23.5.26-52.49.26s-52.5-.12-52.5-.26,23.5-.26,52.5-.26S138.92,400.14,138.92,400.29Z" style="fill:#263238"></path><path d="M86.19,286.21c-.15,0-.26-8.77-.26-19.57s.11-19.58.26-19.58.26,8.76.26,19.58S86.33,286.21,86.19,286.21Z" style="fill:#263238"></path><path d="M135.49,396.7s0-.18,0-.51,0-.85,0-1.49c0-1.31,0-3.22,0-5.66,0-4.92-.05-12-.1-20.8l.19.18-72.34.08.26-.26h0v14.61c0,4.76,0,9.39,0,13.83l-.25-.25,51.8.12,15.07.07,4,0,1.05,0h.37l-.34,0h-1l-4,0-15,.06-52,.12H62.9v-.25c0-4.44,0-9.07,0-13.83V368.26h0l.26-.26,72.34.08h.18v.18c0,8.83-.08,16-.1,20.91,0,2.43,0,4.32,0,5.62,0,.62,0,1.11,0,1.45S135.49,396.7,135.49,396.7Z" style="fill:#263238"></path></g></svg>